<?xml version="1.0" encoding="UTF-8"?>
<svg xmlns="http://www.w3.org/2000/svg" version="1.1" viewBox="0 0 414.68 153.72">
  <defs>
    <style>
      .cls-1 {
        fill: #fff;
      }
    </style>
  </defs>
  <!-- Generator: Adobe Illustrator 28.6.0, SVG Export Plug-In . SVG Version: 1.2.0 Build 709)  -->
  <g>
    <g id="Layer_1">
      <path class="cls-1" d="M33.19,52.41c1.32-1.4,2.61-1.6,3.86-.58,1.25,1.01,1.52,2.18.82,3.51-.39.62-1.07,1.54-2.05,2.75-.98,1.21-2.12,2.63-3.45,4.27-1.33,1.64-2.75,3.37-4.27,5.2-1.52,1.83-3.1,3.61-4.73,5.32-1.64,1.72-3.24,3.27-4.79,4.68-1.56,1.4-3,2.53-4.33,3.39-1.33.86-2.46,1.29-3.39,1.29-3.66,0-6.57-1.97-8.71-5.9C0,72.39-.44,68.35.8,64.22c1.48-3.43,3.92-7.62,7.31-12.57,3.39-4.95,6.49-10,9.29-15.14,1.25-2.81,1.64-5.73,1.17-8.77-.08-.23.19-.37.82-.41.62-.04,1.46.08,2.51.35,1.05.27,2.18.74,3.39,1.4,1.21.66,2.36,1.62,3.45,2.87,1.48,1.64,2.41,3.88,2.81,6.72.39,2.85-.23,5.67-1.87,8.48-3.12,4.99-6.04,9.63-8.77,13.91-1.4,2.18-2.44,3.96-3.1,5.32-.66,1.36-1.01,2.3-1.05,2.81-.04.51.21.66.76.47.54-.19,1.3-.76,2.28-1.7.97-.94,2.16-2.18,3.57-3.74,4.91-5.77,8.18-9.7,9.82-11.81Z"/>
      <path class="cls-1" d="M43.59,10.21c.94,3.59.39,7.56-1.64,11.93-2.81,3.9-6.14,5.63-10,5.2-3.86-.43-6.65-1.46-8.36-3.1-.39-.47-.35-.92.12-1.34.47-.43,1.05-.95,1.75-1.58,2.26-2.18,3.35-5.88,3.27-11.11.16-1.79,1.3-2.88,3.45-3.27,2.14-.39,4.38-.27,6.72.35,2.34.62,3.9,1.6,4.68,2.92Z"/>
      <path class="cls-1" d="M89.54,52.41c1.32-1.4,2.61-1.62,3.86-.64,1.25.98,1.52,2.16.82,3.57-.39.55-1.07,1.44-2.05,2.69-.98,1.25-2.12,2.69-3.45,4.33-1.33,1.64-2.75,3.37-4.27,5.2-1.52,1.83-3.1,3.61-4.74,5.32-1.64,1.72-3.24,3.27-4.79,4.68-1.56,1.4-3,2.53-4.33,3.39-1.33.86-2.46,1.29-3.39,1.29-3.66,0-6.57-1.97-8.71-5.9-2.14-3.93-2.59-7.97-1.34-12.1,1.48-3.51,3.88-7.81,7.19-12.92,3.31-5.1,6.26-9.68,8.83-13.74.39-.62.25-.72-.41-.29-.66.43-1.62,1.19-2.86,2.28-1.25,1.09-2.59,2.38-4.03,3.86-1.44,1.48-2.83,2.96-4.15,4.44-1.01,1.17-2.22,2.59-3.62,4.27-1.4,1.68-2.88,3.47-4.44,5.38-1.56,1.91-3.1,3.86-4.62,5.85-1.52,1.99-2.92,3.96-4.21,5.9-1.29,1.95-2.36,3.76-3.22,5.44-.86,1.68-1.4,3.14-1.64,4.38.23,1.01.27,1.6.12,1.75-.31.78-1.52,1.25-3.62,1.4-3.59-.23-6.47-2.26-8.65-6.08-2.18-3.82-2.65-7.79-1.4-11.93,1.4-3.43,3.8-7.62,7.19-12.57,3.39-4.95,6.53-10,9.41-15.14,1.17-2.81,1.56-5.73,1.17-8.77-.08-.23.19-.37.82-.41.62-.04,1.46.08,2.51.35,1.05.27,2.16.74,3.33,1.4,1.17.66,2.34,1.58,3.51,2.75,1.25,1.48,2.1,3.43,2.57,5.85.47,2.42.23,4.91-.7,7.48.31-.31.58-.62.82-.94,3.97-4.21,7.89-8.07,11.75-11.57s6.18-5.26,6.96-5.26c3.82,0,7.21,1.87,10.17,5.61.47.7.9,1.56,1.29,2.57.39,1.01.64,2.16.76,3.45.12,1.29.04,2.61-.23,3.97-.27,1.37-.84,2.75-1.7,4.15-3.12,4.99-6.04,9.63-8.77,13.91-1.4,2.18-2.44,3.96-3.1,5.32-.66,1.36-1.01,2.3-1.05,2.81-.04.51.21.66.76.47.54-.19,1.3-.76,2.28-1.7.97-.94,2.16-2.18,3.57-3.74,4.91-5.77,8.18-9.7,9.82-11.81Z"/>
      <path class="cls-1" d="M141.57,52.41c1.32-1.4,2.63-1.6,3.92-.58,1.29,1.01,1.54,2.18.76,3.51-1.09,1.56-3.35,4.46-6.78,8.71-3.43,4.25-7.07,8.28-10.93,12.1-3.86,3.82-6.92,5.85-9.18,6.08-6.7-.31-11.24-2.57-13.62-6.78-2.38-4.21-3.18-8.18-2.4-11.93-.08-.08-.84.82-2.28,2.69-1.44,1.87-2.92,4.05-4.44,6.55-1.52,2.5-2.4,4.64-2.63,6.43,0,.62.04,1.01.12,1.17.08.16.08.31,0,.47-.47.78-1.68,1.25-3.62,1.4-3.67-.23-6.57-2.26-8.71-6.08-2.14-3.82-2.59-7.79-1.34-11.93,2.18-4.6,7.46-13.37,15.84-26.31,8.38-12.94,14.36-22.56,17.95-28.88,1.17-2.81,1.56-5.69,1.17-8.65-.08-.23.19-.39.82-.47.62-.08,1.46.02,2.51.29,1.05.27,2.16.74,3.33,1.4,1.17.66,2.34,1.62,3.51,2.86,1.48,1.64,2.4,3.88,2.75,6.72.35,2.85-.25,5.67-1.81,8.48-2.88,4.6-7.99,12.74-15.32,24.44,2.81-3.04,5.8-5.85,9-8.42,2.42-1.95,4.68-3.55,6.78-4.79,2.1-1.25,3.93-2.16,5.5-2.75,1.56-.58,2.73-.88,3.51-.88,2.1,0,4.11,1.6,6.02,4.79,1.91,3.2,2.63,6.39,2.16,9.59-.08.7-.35.99-.82.88-.47-.12-1.31-.25-2.51-.41-1.21-.16-2.94.12-5.2.82-5.07,1.79-12.24,5.77-21.51,11.93.08,3.2.89,6,2.46,8.42,1.56,2.42,3.72,3.72,6.49,3.92,2.77.2,5.98-1.42,9.65-4.85,3.43-3.43,6.39-6.74,8.89-9.94Z"/>
      <g>
        <path class="cls-1" d="M224.19,139.6h17.98v14.12h-36.64v-59.49h18.65v45.38Z"/>
        <path class="cls-1" d="M291.75,94.23l-21.34,41.43v18.07h-18.65v-18.07l-21.34-41.43h21.34l9.5,21.09,9.5-21.09h21.01Z"/>
        <path class="cls-1" d="M349.65,153.72h-18.65l-19.75-29.91v29.91h-18.65v-59.49h18.65l19.75,30.42v-30.42h18.65v59.49Z"/>
        <path class="cls-1" d="M392.58,153.72l-10.92-15.46-9.08,15.46h-21.26l19.58-30.67-20.42-28.82h22.1l10.5,14.87,8.74-14.87h21.26l-19.24,30.08,20.84,29.41h-22.1Z"/>
      </g>
      <path class="cls-1" d="M193.93,106.21c.26,1.3.36,2.59.29,3.89-.06,1.3-.28,2.67-.66,4.13-2.59,10.11-10,19.19-22.24,27.24-12.26,8.05-25.16,12.08-38.67,12.08-11.84,0-20.78-3.42-26.82-10.26-6.02-6.84-7.66-15.36-4.92-25.58,2.57-9.57,7.92-17.35,16.06-23.35,8.13-6,18.65-9.89,31.58-11.67-4.96-1.19-8.48-3.51-10.55-6.97-2.07-3.46-2.42-7.73-1.07-12.81,2.01-7.57,7.08-13.97,15.21-19.21,8.12-5.24,17.15-7.86,27.1-7.86,6.81,0,12.16,1.49,16.05,4.46,3.89,2.97,5.33,6.46,4.29,10.46-.43,1.68-1.29,3.09-2.58,4.26-1.29,1.16-3.07,2.12-5.35,2.88l-5.16,1.7c-.33-4.7-1.46-8.2-3.4-10.5-1.94-2.3-4.69-3.45-8.26-3.45-4.48,0-8.54,1.49-12.2,4.46-3.66,2.97-6.09,6.73-7.28,11.27s-.82,8.16,1.03,11.19c1.85,3.03,5.07,5.11,9.64,6.24l-3.27,6.97c-10.1.92-18.65,3.96-25.67,9.12-7.03,5.16-11.61,11.77-13.75,19.82-2.04,7.68-1.16,14.01,2.63,19.01,3.8,5,9.7,7.5,17.69,7.5,8.53,0,16.29-2.53,23.29-7.58,6.99-5.05,11.44-11.25,13.33-18.61.4-1.57.63-3.07.68-4.5.05-1.43-.09-2.88-.41-4.34-.27,0-.66-.03-1.19-.08-2.86-.16-4.74-.24-5.66-.24-6.5,0-11.34.64-14.52,1.91-3.18,1.27-5.14,3.31-5.87,6.12-.35,1.35-.32,2.62.09,3.81.42,1.19,1.23,2.35,2.44,3.49l-3.21,3c-.63.54-1.37.97-2.24,1.3-.87.32-1.73.49-2.59.49-2.21,0-3.79-.9-4.74-2.72-.95-1.81-1.04-4.18-.28-7.09,1.72-6.54,6.34-12,13.85-16.38,7.5-4.38,16.95-7.05,28.36-8.03,2.84-.22,6.87-.46,12.09-.73,16.17-.76,25.11-4.54,26.84-11.35.7-2.76.28-4.95-1.26-6.57-1.54-1.62-4.02-2.43-7.44-2.43-.64,0-1.92.08-3.83.24-.6.05-1.06.08-1.38.08.04-.16.11-.73.19-1.7.09-.97.2-1.73.34-2.27.65-2.54,2.01-4.53,4.09-5.96,2.07-1.43,4.63-2.15,7.67-2.15,4.64,0,8.07,1.76,10.28,5.27,2.21,3.51,2.63,8,1.25,13.46-2.06,8.16-6.61,14.99-13.65,20.47-7.06,5.49-14.88,8.23-23.48,8.23-.27,0-.71-.03-1.31-.08-.6-.05-1.1-.08-1.47-.08Z"/>
    </g>
  </g>
</svg>